<?xml version="1.0" encoding="utf-8"?>
<!-- Generator: Adobe Illustrator 25.4.0, SVG Export Plug-In . SVG Version: 6.00 Build 0)  -->
<svg version="1.1" id="Layer_1" xmlns="http://www.w3.org/2000/svg" xmlns:xlink="http://www.w3.org/1999/xlink" x="0px" y="0px"
	 viewBox="0 0 239 239" style="enable-background:new 0 0 239 239;" xml:space="preserve">
<style type="text/css">
	.st0{fill:url(#SVGID_1_);}
	.st1{fill:#A76816;}
	.st2{fill:url(#SVGID_00000160189724624234492480000018054652753585990578_);stroke:#A76816;stroke-miterlimit:10;}
	
		.st3{fill:url(#SVGID_00000030450731275512537480000010424978939254796685_);stroke:#A76816;stroke-width:0.5;stroke-miterlimit:10;}
	.st4{opacity:0.66;fill:url(#SVGID_00000174576926770232392050000013451371633204347543_);}
	.st5{opacity:0.66;fill:url(#SVGID_00000098200937354269488440000015824727580015479466_);}
</style>
<g>
	
		<radialGradient id="SVGID_1_" cx="119.5" cy="119.5" r="119.1016" fx="119.5607" fy="120.9378" gradientTransform="matrix(0.9874 -0.1584 0.1584 0.9874 -17.4218 20.4398)" gradientUnits="userSpaceOnUse">
		<stop  offset="0.9048" style="stop-color:#A76816"/>
		<stop  offset="0.9216" style="stop-color:#BC7417"/>
		<stop  offset="0.9525" style="stop-color:#EB901A"/>
		<stop  offset="1" style="stop-color:#A76816"/>
	</radialGradient>
	<path class="st0" d="M119.36,238.62c-27.99,0-55.25-10-76.75-28.17c-21.73-18.36-36.19-43.96-40.7-72.08
		C-8.5,73.52,35.79,12.31,100.63,1.9c6.29-1.01,12.69-1.52,19.01-1.52c27.99,0,55.25,10,76.75,28.17
		c21.73,18.36,36.19,43.96,40.7,72.08c10.4,64.84-33.89,126.06-98.73,136.47C132.07,238.11,125.68,238.62,119.36,238.62
		C119.36,238.62,119.36,238.62,119.36,238.62z M119.63,10.74c-5.77,0-11.61,0.47-17.36,1.39c-28.68,4.6-53.85,20.1-70.88,43.63
		c-17.03,23.53-23.87,52.29-19.27,80.97c4.12,25.68,17.32,49.06,37.16,65.82c19.63,16.58,44.52,25.72,70.08,25.72
		c5.77,0,11.61-0.47,17.36-1.39c28.68-4.6,53.85-20.1,70.88-43.63c17.03-23.53,23.87-52.29,19.27-80.97
		c-4.12-25.68-17.32-49.06-37.16-65.82C170.08,19.87,145.19,10.74,119.63,10.74z"/>
	<path class="st1" d="M119.64,0.78c27.9,0,55.06,9.97,76.5,28.07c21.66,18.3,36.07,43.81,40.56,71.84
		c5.02,31.31-2.45,62.69-21.03,88.38s-46.06,42.6-77.37,47.63c-6.27,1.01-12.65,1.52-18.95,1.52c-27.9,0-55.06-9.97-76.5-28.07
		C21.2,191.85,6.79,166.34,2.3,138.3C-2.73,107,4.74,75.61,23.33,49.92S69.39,7.32,100.7,2.3C106.97,1.29,113.34,0.78,119.64,0.78
		 M119.37,228.66c5.79,0,11.66-0.47,17.42-1.39c28.78-4.62,54.05-20.17,71.14-43.79c17.09-23.62,23.96-52.48,19.34-81.27
		c-4.14-25.78-17.38-49.24-37.29-66.06c-19.7-16.64-44.68-25.81-70.34-25.81c-5.8,0-11.66,0.47-17.42,1.39
		C73.43,16.35,48.16,31.9,31.07,55.52c-17.09,23.62-23.96,52.48-19.34,81.27c4.14,25.78,17.38,49.24,37.3,66.06
		C68.73,219.49,93.71,228.66,119.37,228.66 M119.64-0.02c-6.29,0-12.66,0.5-19.08,1.53C35.41,11.96-8.95,73.27,1.51,138.43
		c9.43,58.75,60.19,100.59,117.85,100.59c6.29,0,12.66-0.5,19.08-1.53c65.16-10.45,109.52-71.76,99.06-136.92
		C228.06,41.82,177.3-0.02,119.64-0.02L119.64-0.02z M119.37,227.86c-52.28,0-98.3-37.93-106.85-91.2
		C3.04,77.58,43.25,22,102.34,12.52c5.81-0.93,11.59-1.38,17.3-1.38c52.28,0,98.3,37.93,106.85,91.2
		c9.48,59.08-30.73,114.66-89.81,124.14C130.85,227.41,125.07,227.86,119.37,227.86L119.37,227.86z"/>
</g>
<radialGradient id="SVGID_00000031164914597773166170000002249079481110757288_" cx="119.5" cy="119.5" r="109" gradientTransform="matrix(0.9874 -0.1584 0.1584 0.9874 -17.4218 20.4398)" gradientUnits="userSpaceOnUse">
	<stop  offset="0" style="stop-color:#FCEE21"/>
	<stop  offset="0.1277" style="stop-color:#FBE921"/>
	<stop  offset="0.2828" style="stop-color:#F8DA20"/>
	<stop  offset="0.4521" style="stop-color:#F4C11E"/>
	<stop  offset="0.6303" style="stop-color:#EE9F1B"/>
	<stop  offset="0.7043" style="stop-color:#EB8F1A"/>
	<stop  offset="1" style="stop-color:#A76816"/>
</radialGradient>
<circle style="fill:url(#SVGID_00000031164914597773166170000002249079481110757288_);stroke:#A76816;stroke-miterlimit:10;" cx="119.5" cy="119.5" r="109"/>
<radialGradient id="SVGID_00000133495890671160932870000006833573646063636891_" cx="126.5268" cy="121.554" r="77.5584" gradientUnits="userSpaceOnUse">
	<stop  offset="0" style="stop-color:#F1B01D"/>
	<stop  offset="0.4938" style="stop-color:#F1B21D"/>
	<stop  offset="0.999" style="stop-color:#FAE220"/>
</radialGradient>
<path style="fill:url(#SVGID_00000133495890671160932870000006833573646063636891_);stroke:#A76816;stroke-width:0.5;stroke-miterlimit:10;" d="
	M144.02,111.62l-0.07-0.42c14.08-7.88,21.22-21.34,19.02-35.05c-1.79-11.17-7.57-18.89-15.82-23.18
	c-6.29-3.61-13.48-5.45-22.51-5.58l-3.5-21.83l-11.85,1.9l3.3,20.6c-1.96,0.22-3.98,0.51-6.09,0.85c-1.27,0.2-2.54,0.42-3.8,0.65
	l-3.29-20.51l-11.85,1.9l3.38,21.07c-6.86,1.64-12.96,3.48-17.47,5.21l22.42,139.71c4.37-0.1,10.49-0.48,18.09-1.39l3.53,22.01
	l11.85-1.9l-3.5-21.81c3.45-0.57,6.72-1.22,9.82-1.95l3.56,22.18l11.85-1.9l-3.79-23.6c10.96-3.82,18.99-8.99,24.29-15.66
	c6.05-8.11,9.4-18.16,7.44-30.37C175.64,121.45,158.05,112.82,144.02,111.62z M93.8,66.71c2.85-1.11,7.59-2.51,16.02-3.87
	c18.54-2.98,32.24,1.52,34.91,18.17c2.2,13.7-7.56,25.64-26.95,28.75l-16.65,2.67L93.8,66.71z M127.58,178.88
	c-6.54,1.05-11.83,1.69-15.52,1.63l-8.69-54.16l15.17-2.43c20.02-3.21,37.96,2.12,41.07,21.51
	C162.92,166.08,146.55,175.84,127.58,178.88z"/>
<linearGradient id="SVGID_00000016068113376902298090000001530750508411888047_" gradientUnits="userSpaceOnUse" x1="162.118" y1="50.882" x2="176.2601" y2="36.7399" gradientTransform="matrix(0.9874 -0.1584 0.1584 0.9874 -17.4218 20.4398)">
	<stop  offset="0" style="stop-color:#AF6C17"/>
	<stop  offset="0.2734" style="stop-color:#C18A19"/>
	<stop  offset="0.8653" style="stop-color:#F0D51D"/>
	<stop  offset="1" style="stop-color:#FBE71E"/>
</linearGradient>
<circle style="opacity:0.66;fill:url(#SVGID_00000016068113376902298090000001530750508411888047_);" cx="156.41" cy="37.11" r="10"/>
<linearGradient id="SVGID_00000089566744792993766770000006205224597396365713_" gradientUnits="userSpaceOnUse" x1="183.559" y1="65.441" x2="190.6301" y2="58.3699" gradientTransform="matrix(0.9874 -0.1584 0.1584 0.9874 -17.4218 20.4398)">
	<stop  offset="0" style="stop-color:#AF6C17"/>
	<stop  offset="0.2734" style="stop-color:#C18A19"/>
	<stop  offset="0.8653" style="stop-color:#F0D51D"/>
	<stop  offset="1" style="stop-color:#FBE71E"/>
</linearGradient>
<circle style="opacity:0.66;fill:url(#SVGID_00000089566744792993766770000006205224597396365713_);" cx="177.04" cy="52.03" r="5"/>
</svg>
